<svg width="71" height="71" viewBox="0 0 71 71" fill="none" xmlns="http://www.w3.org/2000/svg">
<path d="M50.3744 66.3951C53.7893 66.0614 57.1978 65.6657 60.5984 65.2084C61.7022 65.0638 62.7267 64.5564 63.5107 63.7659C64.2947 62.9755 64.7938 61.9469 64.9294 60.8419C65.3351 57.581 65.7357 54.1882 66.0603 50.7143M20.6305 4.60486C17.2156 4.93864 13.807 5.33427 10.4065 5.79157C9.30244 5.93493 8.27738 6.44117 7.49246 7.23067C6.70755 8.02017 6.2073 9.04817 6.07038 10.153C5.64198 13.5246 5.26496 16.9026 4.93945 20.2857M50.3744 4.60486C53.8737 4.93957 57.2969 5.35543 60.5984 5.79157C61.7015 5.93597 62.7254 6.44267 63.5093 7.23208C64.2932 8.0215 64.7927 9.04892 64.9294 10.153C65.3351 13.419 65.7357 16.8118 66.0603 20.2857M20.6305 66.3951C17.2159 66.0582 13.8074 65.6626 10.4065 65.2084C9.30168 65.0648 8.27605 64.5579 7.49104 63.7673C6.70604 62.9768 6.20625 61.9477 6.07038 60.8419C5.64203 57.472 5.26501 54.0957 4.93945 50.7143M35.4999 26.1787V19.6619" stroke="#4147D5" stroke-width="6" stroke-linecap="round" stroke-linejoin="round"/>
<path d="M35.5 26.1787C39.4912 26.1787 43.6345 26.1787 47.3113 26.6554C48.853 26.8478 50.2898 27.5384 51.4029 28.6223C52.5161 29.7061 53.2448 31.1239 53.4782 32.66C53.7774 34.7038 53.7774 36.778 53.7774 40.3077C53.7774 43.8425 53.7774 45.9167 53.4731 47.9554C53.2402 49.49 52.513 50.9067 51.4019 51.9904C50.2907 53.0741 48.8563 53.7656 47.3164 53.96C43.6396 54.4418 39.4962 54.4418 35.505 54.4418C31.5189 54.4418 27.3755 54.4418 23.6987 53.96C22.157 53.7677 20.7203 53.077 19.6071 51.9932C18.4939 50.9093 17.7652 49.4915 17.5319 47.9554C17.2327 45.9167 17.2327 43.8425 17.2327 40.3077C17.2327 36.7729 17.2327 34.7038 17.5319 32.66C17.7652 31.1239 18.4939 29.7061 19.6071 28.6223C20.7203 27.5384 22.157 26.8478 23.6987 26.6554C27.3755 26.1787 31.5138 26.1787 35.5 26.1787Z" fill="#D7E0FF"/>
<path d="M42.0776 41.2916V39.3239M28.9071 41.2916V39.3239M35.5 26.1787C39.4912 26.1787 43.6345 26.1787 47.3113 26.6554C48.853 26.8478 50.2898 27.5384 51.4029 28.6223C52.5161 29.7061 53.2448 31.1239 53.4782 32.66C53.7774 34.7038 53.7774 36.778 53.7774 40.3077C53.7774 43.8425 53.7774 45.9167 53.4731 47.9554C53.2402 49.49 52.513 50.9067 51.4019 51.9904C50.2907 53.0741 48.8563 53.7656 47.3164 53.96C43.6396 54.4418 39.4962 54.4418 35.505 54.4418C31.5189 54.4418 27.3755 54.4418 23.6987 53.96C22.157 53.7677 20.7203 53.077 19.6071 51.9932C18.4939 50.9093 17.7652 49.4915 17.5319 47.9554C17.2327 45.9167 17.2327 43.8425 17.2327 40.3077C17.2327 36.7729 17.2327 34.7038 17.5319 32.66C17.7652 31.1239 18.4939 29.7061 19.6071 28.6223C20.7203 27.5384 22.157 26.8478 23.6987 26.6554C27.3755 26.1787 31.5138 26.1787 35.5 26.1787Z" stroke="#4147D5" stroke-width="6" stroke-linecap="round" stroke-linejoin="round"/>
<path d="M35.4998 19.596C38.6238 19.596 40.3836 17.8362 40.3836 14.7122C40.3836 11.5882 38.6238 9.83856 35.4998 9.83856C32.3758 9.83856 30.6211 11.5983 30.6211 14.7173C30.6211 17.8362 32.3809 19.596 35.4998 19.596Z" fill="white"/>
<path d="M35.4998 19.596C38.6238 19.596 40.3836 17.8362 40.3836 14.7122C40.3836 11.5882 38.6238 9.83856 35.4998 9.83856C32.3758 9.83856 30.6211 11.5983 30.6211 14.7173C30.6211 17.8362 32.3809 19.596 35.4998 19.596Z" stroke="#4147D5" stroke-width="6" stroke-linecap="round" stroke-linejoin="round"/>
</svg>
