<svg width="71" height="71" viewBox="0 0 71 71" fill="none" xmlns="http://www.w3.org/2000/svg">
<path d="M13.3125 31.0625C13.3125 28.6117 11.3258 26.625 8.875 26.625C6.42424 26.625 4.4375 28.6117 4.4375 31.0625V44.375C4.4375 46.8258 6.42424 48.8125 8.875 48.8125C11.3258 48.8125 13.3125 46.8258 13.3125 44.375V31.0625Z" fill="#8BC34A"/>
<path d="M66.5625 31.0625C66.5625 28.6117 64.5758 26.625 62.125 26.625C59.6742 26.625 57.6875 28.6117 57.6875 31.0625V44.375C57.6875 46.8258 59.6742 48.8125 62.125 48.8125C64.5758 48.8125 66.5625 46.8258 66.5625 44.375V31.0625Z" fill="#8BC34A"/>
<path d="M17.75 26.6251H53.25V53.2501H17.75V26.6251ZM22.1875 53.2501H31.0625V62.1251C31.0625 63.302 30.595 64.4307 29.7628 65.2628C28.9306 66.095 27.8019 66.5626 26.625 66.5626C25.4481 66.5626 24.3194 66.095 23.4872 65.2628C22.655 64.4307 22.1875 63.302 22.1875 62.1251V53.2501ZM39.9375 53.2501H48.8125V62.1251C48.8125 63.302 48.345 64.4307 47.5128 65.2628C46.6806 66.095 45.5519 66.5626 44.375 66.5626C43.1981 66.5626 42.0694 66.095 41.2372 65.2628C40.405 64.4307 39.9375 63.302 39.9375 62.1251V53.2501ZM47.803 9.40978L52.5067 4.70603C52.9109 4.28757 53.1345 3.72711 53.1295 3.14536C53.1244 2.56361 52.8911 2.00712 52.4797 1.59574C52.0683 1.18437 51.5118 0.951025 50.9301 0.94597C50.3483 0.940915 49.7879 1.16455 49.3694 1.56872L44.2086 6.72953C41.5523 5.22645 38.5521 4.43649 35.5 4.43649C32.4479 4.43649 29.4477 5.22645 26.7914 6.72953L21.6328 1.56872C21.4281 1.3568 21.1833 1.18777 20.9126 1.07149C20.6419 0.955208 20.3508 0.894001 20.0562 0.891441C19.7616 0.888881 19.4694 0.945019 19.1967 1.05658C18.9241 1.16814 18.6763 1.33289 18.468 1.54121C18.2597 1.74954 18.0949 1.99727 17.9834 2.26994C17.8718 2.54262 17.8157 2.83478 17.8182 3.12939C17.8208 3.42399 17.882 3.71514 17.9983 3.98583C18.1146 4.25653 18.2836 4.50136 18.4955 4.70603L23.1993 9.40978C21.4754 11.0615 20.1039 13.0451 19.1674 15.2412C18.2309 17.4372 17.7487 19.8002 17.75 22.1876H53.25C53.2516 19.8003 52.7698 17.4375 51.8336 15.2415C50.8975 13.0454 49.5264 11.0617 47.803 9.40978ZM31.0625 17.7501H26.625V13.3126H31.0625V17.7501ZM44.375 17.7501H39.9375V13.3126H44.375V17.7501Z" fill="#8BC34A"/>
</svg>
