<svg width="71" height="60" viewBox="0 0 71 60" fill="none" xmlns="http://www.w3.org/2000/svg">
<g clip-path="url(#clip0_229_35)">
<path d="M62.9167 44.0807H38.9808C38.7118 44.0807 38.1738 44.0807 37.9047 44.3474L19.8857 58.4934C19.6167 58.7604 19.6167 59.0273 19.8857 59.2943C19.8857 59.5613 20.1547 59.5613 20.4237 59.5613H63.1854C67.4887 59.5613 71.2538 55.8242 70.985 51.2871C70.716 47.0166 66.9507 44.0804 62.9167 44.0804" fill="#00C9DB"/>
<path d="M43.3887 29.1793C43.1197 27.0441 42.0439 24.9089 40.4304 23.5743L12.7292 1.68803C9.23287 -0.981145 4.39206 -0.4472 1.70251 3.02262C-0.98705 6.49243 -0.449028 11.2966 3.04728 13.9657L23.2178 29.98L3.04728 45.9942C-0.449028 48.6633 -0.98705 53.4677 1.70251 56.9373C4.39206 60.4071 9.23287 60.9411 12.7292 58.2722L40.4304 35.852C42.3129 34.2504 43.3887 32.1152 43.3887 29.713V29.1793Z" fill="#0D55FF"/>
<path d="M70.985 51.8207C70.985 56.0912 67.4887 59.561 63.1856 59.561C58.8825 59.561 55.3862 56.0912 55.3862 51.8207C55.3862 47.5503 58.8825 44.0804 63.1856 44.0804C67.4887 44.0804 70.985 47.5503 70.985 51.8207Z" fill="#7000F2"/>
</g>
<defs>
<clipPath id="clip0_229_35">
<rect width="71" height="60" fill="white"/>
</clipPath>
</defs>
</svg>
