<svg width="71" height="71" viewBox="0 0 71 71" fill="none" xmlns="http://www.w3.org/2000/svg">
<g clip-path="url(#clip0_229_51)">
<path d="M27.3096 26.5845L34.4299 20.1438C36.0675 18.6654 38.007 17.5608 40.1139 16.9067C42.2209 16.2525 44.4449 16.0644 46.6318 16.3554L56.0545 17.603L69.1286 10.5385C69.3218 10.4339 69.5388 10.3813 69.7585 10.3859C69.9781 10.3905 70.1927 10.452 70.3814 10.5645C70.5701 10.677 70.7263 10.8365 70.8347 11.0276C70.9432 11.2186 71.0001 11.4345 71 11.6542V35.6826C70.9998 36.4889 70.8074 37.2835 70.4388 38.0006C70.0701 38.7176 69.5358 39.3364 68.8801 39.8057L60.0761 46.0993L41.0025 30.099L34.6886 35.211C33.5367 36.1231 32.0763 36.5534 30.6139 36.4116C29.1515 36.2697 27.801 35.5667 26.846 34.4502C25.8909 33.3337 25.4057 31.8906 25.4922 30.4239C25.5786 28.9572 26.23 27.581 27.3096 26.5845Z" fill="#2859C5"/>
<path fill-rule="evenodd" clip-rule="evenodd" d="M27.3097 26.5845L34.146 20.4075C32.4093 18.9347 30.3708 17.8608 28.174 17.2615C25.9773 16.6621 23.6758 16.5519 21.4319 16.9386L12.1207 18.5514L1.90688 13.0539C1.70929 12.9474 1.48738 12.8942 1.26297 12.8994C1.03856 12.9047 0.819386 12.9682 0.626994 13.0839C0.434603 13.1995 0.275624 13.3632 0.165694 13.5589C0.0557645 13.7546 -0.00133093 13.9756 2.35496e-05 14.2001V35.6826C2.35496e-05 37.3968 0.846952 38.9994 2.26188 39.9629L29.9265 58.8236C31.674 60.0181 33.7458 60.6479 35.8624 60.6279C37.979 60.608 40.0386 59.9392 41.7632 58.712L60.8572 45.6429L60.8014 45.5922L60.0762 46.1044L50.5419 38.1119C52.4034 37.4439 54.0828 36.3498 55.446 34.9169C55.7353 34.6172 55.9628 34.2634 56.1155 33.8758C56.2681 33.4882 56.343 33.0743 56.3357 32.6577C56.3284 32.2412 56.2391 31.8302 56.073 31.4481C55.9068 31.0661 55.667 30.7205 55.3674 30.4312C55.0677 30.1418 54.7139 29.9143 54.3263 29.7616C53.9387 29.609 53.5248 29.5342 53.1082 29.5415C52.6917 29.5488 52.2807 29.638 51.8986 29.8042C51.5166 29.9703 51.171 30.2101 50.8817 30.5098C50.0003 31.4621 48.8418 32.1132 47.57 32.371C46.4594 32.584 45.0445 32.5485 43.2644 32.0008L41.0025 30.099L34.6886 35.211C33.5368 36.1231 32.0763 36.5535 30.6139 36.4116C29.1516 36.2697 27.801 35.5667 26.846 34.4502C25.891 33.3337 25.4057 31.8906 25.4922 30.4239C25.5786 28.9572 26.2301 27.5811 27.3097 26.5845Z" fill="#8FBFFA"/>
</g>
<defs>
<clipPath id="clip0_229_51">
<rect width="71" height="71" fill="white"/>
</clipPath>
</defs>
</svg>
