<svg width="71" height="71" viewBox="0 0 71 71" fill="none" xmlns="http://www.w3.org/2000/svg">
<path d="M53.2501 50.7142C56.3356 51.0094 59.4315 50.2682 62.0489 48.6078C64.6663 46.9474 66.6559 44.4623 67.7036 41.5451C68.4086 39.6129 68.4643 35.5 68.4643 35.5C68.4643 35.5 68.4035 31.3921 67.7036 29.4548C66.6559 26.5376 64.6663 24.0526 62.0489 22.3921C59.4315 20.7317 56.3356 19.9905 53.2501 20.2857C39.3036 20.2857 31.6965 50.7142 17.7501 50.7142C14.6645 51.0094 11.5686 50.2682 8.95119 48.6078C6.33381 46.9474 4.34416 44.4623 3.29648 41.5451C2.59155 39.6129 2.53577 35.5 2.53577 35.5C2.53577 35.5 2.59662 31.3921 3.29648 29.4548C4.34416 26.5376 6.33381 24.0526 8.95119 22.3921C11.5686 20.7317 14.6645 19.9905 17.7501 20.2857C31.6965 20.2857 39.3036 50.7142 53.2501 50.7142Z" stroke="#4147D5" stroke-width="5.07143" stroke-linecap="round" stroke-linejoin="round"/>
</svg>
