<svg width="71" height="71" viewBox="0 0 71 71" fill="none" xmlns="http://www.w3.org/2000/svg">
<path d="M53.2499 50.7142C56.3355 51.0094 59.4314 50.2682 62.0488 48.6078C64.6662 46.9474 66.6558 44.4623 67.7035 41.5451C68.4084 39.6129 68.4642 35.5 68.4642 35.5C68.4642 35.5 68.4034 31.3921 67.7035 29.4548C66.6558 26.5376 64.6662 24.0526 62.0488 22.3921C59.4314 20.7317 56.3355 19.9905 53.2499 20.2857C39.3035 20.2857 31.6964 50.7142 17.7499 50.7142C14.6644 51.0094 11.5684 50.2682 8.95107 48.6078C6.33369 46.9474 4.34404 44.4623 3.29636 41.5451C2.59143 39.6129 2.53564 35.5 2.53564 35.5C2.53564 35.5 2.5965 31.3921 3.29636 29.4548C4.34404 26.5376 6.33369 24.0526 8.95107 22.3921C11.5684 20.7317 14.6644 19.9905 17.7499 20.2857C31.6964 20.2857 39.3035 50.7142 53.2499 50.7142Z" stroke="#4147D5" stroke-width="5.07143" stroke-linecap="round" stroke-linejoin="round"/>
</svg>
