<svg width="71" height="71" viewBox="0 0 71 71" fill="none" xmlns="http://www.w3.org/2000/svg">
<path d="M35.5 26.625C52.0164 26.625 62.125 32.3716 62.125 35.5C62.125 38.6284 52.0164 44.375 35.5 44.375C18.9836 44.375 8.875 38.6284 8.875 35.5C8.875 32.3716 18.9836 26.625 35.5 26.625ZM35.5 22.1875C18.3446 22.1875 4.4375 28.1471 4.4375 35.5C4.4375 42.8529 18.3446 48.8125 35.5 48.8125C52.6554 48.8125 66.5625 42.8529 66.5625 35.5C66.5625 28.1471 52.6554 22.1875 35.5 22.1875Z" fill="#0288D1"/>
<path d="M35.5 31.0625C34.6223 31.0625 33.7644 31.3228 33.0347 31.8104C32.3049 32.298 31.7362 32.991 31.4003 33.8018C31.0644 34.6127 30.9765 35.5049 31.1478 36.3657C31.319 37.2265 31.7416 38.0172 32.3622 38.6378C32.9828 39.2584 33.7735 39.681 34.6343 39.8522C35.4951 40.0235 36.3873 39.9356 37.1982 39.5997C38.009 39.2639 38.702 38.6951 39.1896 37.9653C39.6772 37.2356 39.9375 36.3777 39.9375 35.5C39.9375 34.3231 39.47 33.1944 38.6378 32.3622C37.8056 31.53 36.6769 31.0625 35.5 31.0625Z" fill="#0288D1"/>
<path d="M23.2036 12.2186C27.6789 12.2186 36.3764 19.2676 43.1857 31.0625C51.4439 45.3668 51.5215 56.993 48.8124 58.5572C48.4999 58.7193 48.1501 58.7958 47.7985 58.7791C43.3233 58.7791 34.6235 51.7323 27.8142 39.9375C19.556 25.6332 19.4784 14.0069 22.1874 12.4427C22.5006 12.2803 22.8513 12.2015 23.2036 12.2186ZM23.2014 7.78335C22.0707 7.76289 20.9548 8.04395 19.9687 8.59763C13.6009 12.2741 15.3936 27.2995 23.9713 42.1562C31.2577 54.7809 41.1001 63.2188 47.8007 63.2188C48.9311 63.2375 50.0461 62.9549 51.0312 62.4001C57.399 58.7258 55.6063 43.7005 47.0286 28.8437C39.7422 16.219 29.8998 7.78113 23.1992 7.78113L23.2014 7.78335Z" fill="#0288D1"/>
<path d="M47.7985 12.2187C48.1501 12.202 48.4999 12.2785 48.8124 12.4406C51.5215 14.007 51.4439 25.6332 43.1857 39.9375C36.3741 51.7324 27.6766 58.7814 23.2014 58.7814C22.8498 58.7981 22.5 58.7215 22.1874 58.5595C19.4783 56.9908 19.556 45.3646 27.8142 31.0625C34.6257 19.2677 43.3232 12.2187 47.7985 12.2187ZM47.7985 7.78118C41.0978 7.78118 31.2577 16.2213 23.9691 28.8438C15.3958 43.7005 13.6009 58.7259 19.9687 62.4002C20.9544 62.9554 22.0702 63.238 23.2014 63.2189C29.902 63.2189 39.7422 54.7787 47.0308 42.1563C55.604 27.2995 57.399 12.2742 51.0312 8.5999C50.0455 8.04467 48.9296 7.76207 47.7985 7.78118Z" fill="#0288D1"/>
</svg>
