<svg width="71" height="71" viewBox="0 0 71 71" fill="none" xmlns="http://www.w3.org/2000/svg">
<path d="M21.8461 0C19.6734 0 17.5896 0.863116 16.0533 2.39947C14.5169 3.93583 13.6538 6.01957 13.6538 8.19231V62.8077C13.6538 64.9804 14.5169 67.0642 16.0533 68.6005C17.5896 70.1369 19.6734 71 21.8461 71H51.8846C54.0573 71 56.1411 70.1369 57.6774 68.6005C59.2138 67.0642 60.0769 64.9804 60.0769 62.8077V8.19231C60.0769 6.01957 59.2138 3.93583 57.6774 2.39947C56.1411 0.863116 54.0573 0 51.8846 0L21.8461 0ZM34.1346 2.73077H39.5961C39.9582 2.73077 40.3055 2.87462 40.5616 3.13068C40.8176 3.38674 40.9615 3.73403 40.9615 4.09615C40.9615 4.45828 40.8176 4.80557 40.5616 5.06163C40.3055 5.31769 39.9582 5.46154 39.5961 5.46154H34.1346C33.7725 5.46154 33.4252 5.31769 33.1691 5.06163C32.913 4.80557 32.7692 4.45828 32.7692 4.09615C32.7692 3.73403 32.913 3.38674 33.1691 3.13068C33.4252 2.87462 33.7725 2.73077 34.1346 2.73077ZM20.4807 8.19231H53.25C53.6121 8.19231 53.9594 8.33616 54.2154 8.59222C54.4715 8.84828 54.6153 9.19557 54.6153 9.55769V55.9808C54.6153 56.3429 54.4715 56.6902 54.2154 56.9462C53.9594 57.2023 53.6121 57.3462 53.25 57.3462H20.4807C20.1186 57.3462 19.7713 57.2023 19.5153 56.9462C19.2592 56.6902 19.1153 56.3429 19.1153 55.9808V9.55769C19.1153 9.19557 19.2592 8.84828 19.5153 8.59222C19.7713 8.33616 20.1186 8.19231 20.4807 8.19231ZM40.7922 21.8462C39.6644 21.9199 38.4028 22.6162 37.6327 23.5529C36.9336 24.3994 36.2973 25.6528 36.524 26.8817C37.7556 26.9145 39.0308 26.2099 39.7682 25.2596C40.4563 24.3748 40.9833 23.1242 40.7922 21.8462ZM33.1952 26.7097C31.584 26.7097 29.8445 27.7637 28.7577 29.4404C27.223 31.7943 27.4742 36.1554 29.9538 39.9375C30.844 41.2865 32.0728 42.8239 33.6239 42.8403C34.9975 42.854 35.3361 41.9965 37.2067 41.9856C39.0773 41.9747 39.4104 42.854 40.7922 42.8403C42.3378 42.8239 43.6595 41.2018 44.5443 39.8528C45.0796 39.0442 45.5368 38.1866 45.9097 37.2914C42.3187 35.9342 41.677 30.7867 45.227 28.8424C44.1456 27.4934 42.6518 26.7124 41.2182 26.7124C39.3203 26.7124 38.5257 27.649 37.2067 27.649C35.8468 27.649 34.8391 26.7097 33.1952 26.7097ZM36.8653 60.6777C38.7933 60.6777 40.3635 62.2479 40.3635 64.1758C40.3635 66.1037 38.7933 67.6739 36.8653 67.6739C35.938 67.6725 35.0491 67.3035 34.3934 66.6478C33.7377 65.992 33.3687 65.1031 33.3672 64.1758C33.3672 62.2479 34.9374 60.6777 36.8653 60.6777Z" fill="black"/>
</svg>
