<svg width="71" height="71" viewBox="0 0 71 71" fill="none" xmlns="http://www.w3.org/2000/svg">
<path d="M35.5 0.985107L37.8755 4.15644L37.911 4.20377L38.0589 4.39607C38.1852 4.56568 38.3725 4.81122 38.621 5.13269C41.4202 8.77559 44.3276 12.3341 47.3392 15.8034C49.8982 18.7262 52.5755 21.5781 54.9362 23.6726C56.1196 24.7257 57.155 25.5274 58.0011 26.0481C58.7051 26.483 59.072 26.5895 59.1637 26.6161V23.6666H65.0804V26.625C65.0804 27.829 64.7727 29.3171 63.7313 30.5596C62.6131 31.8938 60.9801 32.5416 59.1637 32.5416H11.8333C10.0169 32.5416 8.38686 31.8908 7.26861 30.5625C6.22727 29.323 5.91665 27.8349 5.91369 26.6368L5.90186 23.6785L11.8185 23.6548L11.8304 26.6131V26.6191C11.9191 26.5895 12.2889 26.483 12.9959 26.0481C14.0807 25.3424 15.1057 24.5488 16.0608 23.6755C18.4186 21.5751 21.0988 18.7262 23.6578 15.8034C26.8791 12.106 29.9752 8.30141 32.941 4.39607L33.086 4.20377L33.1215 4.15644L35.5 0.985107ZM11.8333 38.4583V59.1666H5.91665V65.0833H26.625V56.2083C26.625 53.8545 27.56 51.5971 29.2244 49.9327C30.8888 48.2684 33.1462 47.3333 35.5 47.3333C37.8538 47.3333 40.1112 48.2684 41.7756 49.9327C43.4399 51.5971 44.375 53.8545 44.375 56.2083V65.0833H65.0833V59.1666H59.1666V38.4583H11.8333Z" fill="black"/>
<path d="M35.5001 53.25C34.7155 53.25 33.963 53.5617 33.4082 54.1165C32.8534 54.6713 32.5417 55.4237 32.5417 56.2083V65.0833H38.4584V56.2083C38.4584 55.4237 38.1467 54.6713 37.5919 54.1165C37.0371 53.5617 36.2847 53.25 35.5001 53.25Z" fill="black"/>
</svg>
