<svg width="130" height="130" viewBox="0 0 130 130" fill="none" xmlns="http://www.w3.org/2000/svg">
<path fill-rule="evenodd" clip-rule="evenodd" d="M119.167 64.9999C119.167 94.9162 94.9162 119.167 64.9999 119.167C35.0837 119.167 10.8333 94.9162 10.8333 64.9999C10.8333 35.0837 35.0837 10.8333 64.9999 10.8333C94.9162 10.8333 119.167 35.0837 119.167 64.9999ZM81.2499 48.7499C81.2499 53.0597 79.5379 57.1929 76.4904 60.2404C73.4429 63.2879 69.3097 64.9999 64.9999 64.9999C60.6902 64.9999 56.5569 63.2879 53.5094 60.2404C50.462 57.1929 48.7499 53.0597 48.7499 48.7499C48.7499 44.4402 50.462 40.3069 53.5094 37.2594C56.5569 34.212 60.6902 32.4999 64.9999 32.4999C69.3097 32.4999 73.4429 34.212 76.4904 37.2594C79.5379 40.3069 81.2499 44.4402 81.2499 48.7499ZM64.9999 111.042C74.2964 111.057 83.3776 108.244 91.0378 102.976C94.3095 100.728 95.707 96.4491 93.8003 92.9662C89.8624 85.7458 81.7374 81.2499 64.9999 81.2499C48.2624 81.2499 40.1374 85.7458 36.1941 92.9662C34.2928 96.4491 35.6903 100.728 38.962 102.976C46.6223 108.244 55.7034 111.057 64.9999 111.042Z" fill="#E6E6E6"/>
</svg>
