<svg width="60" height="54" viewBox="0 0 60 54" fill="none" xmlns="http://www.w3.org/2000/svg">
<path d="M23.6667 8.875V5.91667H35.5V8.875H41.4167V5.91667C41.4167 4.34747 40.7933 2.84254 39.6837 1.73295C38.5741 0.623361 37.0692 0 35.5 0H23.6667C22.0975 0 20.5925 0.623361 19.483 1.73295C18.3734 2.84254 17.75 4.34747 17.75 5.91667V8.875H23.6667ZM20.2261 32.5417L0 25.7967V44.375C0.00234955 46.7281 0.938146 48.9841 2.60202 50.648C4.2659 52.3119 6.52192 53.2477 8.875 53.25H50.2917C52.6447 53.2477 54.9008 52.3119 56.5646 50.648C58.2285 48.9841 59.1643 46.7281 59.1667 44.375V25.7967L38.9405 32.5417H20.2261Z" fill="white"/>
</svg>
